<svg width="200" height="200" viewBox="0 0 200 200" fill="none" xmlns="http://www.w3.org/2000/svg">
<path d="M190.487 56.0095C190.462 56.4532 190.437 56.8907 190.399 57.3282C190.118 61.0969 189.387 64.7094 188.256 67.9344C184.118 79.7344 177.406 78.3532 174.006 90.4407C170.418 103.216 175.724 112.934 172.599 123.703C170.906 129.534 167.156 133.797 164.249 136.391C163.662 136.916 163.112 137.372 162.618 137.753C161.662 138.509 160.924 138.997 160.574 139.216C152.699 144.291 145.418 142.772 137.787 141.109C136.843 140.903 135.887 140.691 134.924 140.497C128.887 139.247 122.562 138.409 115.493 141.059C111.318 142.628 108.524 144.797 106.318 147.397C105.949 147.828 105.599 148.272 105.262 148.728C99.7431 156.147 97.5555 166.503 82.6993 176.334C77.0618 180.059 60.768 190.847 43.3555 185.309C39.943 184.222 36.493 182.516 33.3055 180.278C33.193 180.203 33.0743 180.122 32.9618 180.034C27.3305 175.997 22.543 170.297 20.193 163.478C17.3243 155.159 19.418 149.066 21.1993 142.259C21.2743 141.959 21.3555 141.653 21.4305 141.347C22.793 135.947 23.818 130.034 21.9368 122.172C19.9555 113.878 16.593 111.159 13.318 106.797C13.2305 106.684 13.143 106.566 13.0555 106.453C11.5618 104.409 10.0868 101.984 8.78052 98.4782C7.13052 94.047 6.16803 89.0219 5.93053 83.7594C5.91178 83.3469 5.89302 82.9407 5.88677 82.5282C5.49302 66.5157 11.6868 48.5032 25.2493 37.9344C34.6805 30.5844 46.2743 27.9345 57.643 28.1532C57.9993 28.1595 58.3555 28.172 58.7118 28.1782C75.6743 28.772 91.9743 35.6345 99.6743 42.6907C100.981 43.8845 102.418 45.422 104.949 46.1407C117.068 49.5657 124.762 25.8282 145.018 18.8095C154.993 15.3532 169.362 15.4907 179.256 24.5595C181.737 26.8345 183.781 29.522 185.412 32.4782C185.543 32.7095 185.668 32.9345 185.787 33.172C189.406 40.072 190.862 48.3157 190.487 56.0095Z" fill="#D6DBBB" fill-opacity="0.85"/>
<path d="M58.7117 28.1793C56.4617 31.8481 54.1117 35.4606 51.6867 39.0043C47.7055 44.8168 43.493 50.4855 38.918 55.848C34.5867 60.923 29.9492 65.7293 24.9492 70.148C20.0867 74.4418 14.8805 78.3606 9.34922 81.7606C8.22422 82.4543 7.08047 83.1168 5.93047 83.7605C5.91172 83.348 5.89297 82.9418 5.88672 82.5293C7.58047 81.5543 9.24922 80.5355 10.8867 79.4668C16.2617 75.9605 21.3055 71.9606 26.0367 67.6168C30.9805 63.0793 35.5617 58.1481 39.8492 52.9856C44.2992 47.6293 48.3992 42.0043 52.318 36.2543C54.1367 33.5855 55.9117 30.8793 57.643 28.1543C57.9992 28.1605 58.3555 28.1731 58.7117 28.1793Z" fill="white"/>
<path d="M185.412 32.4805C184.718 33.193 184.031 33.9055 183.349 34.6367C182.206 35.8617 181.037 36.943 179.724 37.9805C178.549 38.9117 177.487 40.0242 176.362 41.018C175.187 42.0617 173.987 43.0805 172.762 44.0617C167.649 48.1742 162.062 51.543 155.899 53.8367C149.549 56.2055 142.881 57.718 136.274 59.1805C129.406 60.6992 122.493 62.018 115.574 63.3055C102.031 65.818 88.4369 68.1555 75.1057 71.6242C63.0244 74.768 51.1244 78.818 40.0057 84.5242C34.4432 87.3742 29.0994 90.643 24.0994 94.393C19.7744 97.6305 15.2744 101.38 13.0557 106.455C13.1432 106.568 13.2307 106.687 13.3182 106.799C15.2307 102.655 18.5932 99.3492 22.1994 96.5055C27.0994 92.6367 32.4182 89.2805 37.9119 86.3367C48.9182 80.4367 60.7682 76.243 72.7994 72.9992C85.9494 69.4492 99.3682 67.0242 112.756 64.5742C119.568 63.3305 126.381 62.0742 133.156 60.6492C139.831 59.2492 146.549 57.7867 153.043 55.693C159.137 53.7242 164.818 50.9492 170.024 47.2117C172.481 45.443 174.824 43.5305 177.087 41.5305C178.256 40.4992 179.524 39.4867 180.531 38.2867C181.556 37.068 182.706 36.0242 183.887 34.9555C184.531 34.3742 185.162 33.7805 185.787 33.1742L185.412 32.4805Z" fill="white"/>
<path d="M190.487 56.0107C190.462 56.4545 190.437 56.892 190.399 57.3295C189.593 57.6295 188.793 57.9482 188.012 58.3045C182.118 60.9795 177.074 65.1482 172.324 69.4732C167.412 73.942 162.605 78.5295 157.712 83.0232C147.88 92.0357 137.812 100.823 127.037 108.698C116.405 116.479 105.049 123.317 92.8617 128.367C79.743 133.798 65.8367 137.042 51.8242 139.117C44.8305 140.148 37.7992 140.911 30.7617 141.511C27.5805 141.779 24.3867 142.042 21.1992 142.261C21.2742 141.961 21.3555 141.654 21.4305 141.348C33.393 140.342 45.343 139.254 57.1805 137.186C71.0242 134.754 84.6867 131.054 97.4617 125.117C109.524 119.511 120.712 112.186 131.218 104.061C141.78 95.892 151.699 86.917 161.474 77.8357C166.256 73.3982 170.912 68.7857 175.962 64.6545C180.324 61.0857 185.124 57.8232 190.487 56.0107Z" fill="white"/>
<path d="M89.4869 152.872C95.0432 150.885 100.656 149.06 106.318 147.397C105.949 147.829 105.599 148.272 105.262 148.729C98.7432 150.635 92.2869 152.747 85.9119 155.085C75.2182 158.997 64.7494 163.516 54.5557 168.591C47.3119 172.197 40.2432 176.129 33.3057 180.279C33.1932 180.204 33.0744 180.122 32.9619 180.035C41.1182 174.916 49.6244 170.304 58.2557 166.06C68.4057 161.072 78.8432 156.685 89.4869 152.872Z" fill="white"/>
<path d="M164.25 136.392C163.662 136.917 163.112 137.373 162.619 137.754C159.037 138.092 155.462 138.485 151.887 138.948C147.175 139.554 142.475 140.273 137.787 141.11C136.844 140.904 135.887 140.692 134.925 140.498C141.831 139.192 148.781 138.117 155.762 137.285C158.587 136.948 161.412 136.654 164.25 136.392Z" fill="white"/>
<path d="M50.8989 130.523C48.4114 128.523 47.3364 126.641 42.1677 117.06C41.5302 115.879 40.8677 114.61 41.0489 113.004C41.1552 112.054 41.5427 111.035 43.6239 108.541C44.5677 107.41 46.0052 105.685 47.6489 104.304C50.7489 101.691 60.2614 95.4976 73.4864 87.9851C72.4677 85.7414 71.0864 81.8789 71.1177 76.9539C71.1364 73.9976 71.6614 71.5164 72.2114 69.6789C74.5677 59.3851 76.9239 49.0851 79.2802 38.7914C79.4927 37.9039 80.4677 34.2289 84.0864 31.7789C87.0302 29.7851 90.0239 29.7601 91.0739 29.7976C110.049 34.0789 129.018 38.3601 147.993 42.6476C148.943 42.9726 152.205 44.2226 154.393 47.7164C156.736 51.4664 156.236 55.2226 156.086 56.1601C153.286 68.3039 150.486 80.4414 147.686 92.5851C147.355 93.5226 146.193 96.4351 143.068 98.4476C140.386 100.173 137.743 100.273 136.699 100.26C137.318 100.598 139.88 102.091 140.993 105.323C141.968 108.154 141.236 110.573 140.98 111.316C139.93 115.154 138.88 118.991 137.83 122.829C137.205 124.723 136.024 127.254 133.624 129.116C131.961 130.404 131.174 130.248 128.98 131.648C125.98 133.56 124.255 135.891 122.861 137.766C119.793 141.904 120.58 142.91 118.18 145.398C117.524 146.073 115.036 148.579 111.105 149.529C105.768 150.81 101.186 148.398 98.8052 147.135C93.4864 144.323 94.8989 142.61 91.0989 141.054C84.2677 138.254 77.7114 142.985 71.8489 139.229C71.5114 139.016 70.8489 138.56 70.1989 138.085C65.7614 134.879 65.5489 133.554 63.1677 132.729C61.3927 132.116 59.5677 132.179 58.7114 132.21C56.8552 132.279 56.2239 132.66 54.8614 132.473C53.7114 132.316 52.5552 131.823 50.9177 130.51L50.8989 130.523Z" fill="white"/>
<path d="M48.5745 97.4907C47.9245 98.5532 47.0495 100.141 46.2558 102.172C45.062 105.247 44.2183 107.434 44.8058 110.122C45.2933 112.328 46.5308 113.809 47.162 114.466C49.7058 117.109 52.9995 117.353 53.662 117.384C56.1058 117.509 56.6995 116.572 59.0995 116.578C61.6995 116.584 63.812 117.697 65.1933 118.641C65.6495 119.284 66.3183 120.172 67.2058 121.159C69.1995 123.372 70.1995 124.478 71.787 125.141C75.4245 126.659 79.8745 124.916 80.137 124.809C80.6745 124.591 81.2683 124.297 82.212 124.184C82.437 124.159 84.5933 123.928 86.4245 125.091C88.3308 126.303 88.062 127.866 89.7933 130.328C91.2933 132.459 93.0995 133.578 94.1745 134.241C98.5245 136.928 103.081 136.653 105.375 136.516C107.268 136.403 110.325 136.184 113.637 134.353C115.406 133.378 117.781 132.066 118.975 129.466C120.337 126.491 119.387 123.497 118.218 119.997C117.281 117.184 115.381 112.741 111.318 108.059C111.412 106.434 111.431 103.978 110.918 101.059C110.262 97.3657 108.975 90.0594 103.362 87.2594C100.993 86.0782 98.7995 86.1657 98.2745 86.2032C91.3745 86.6344 87.8245 94.3969 87.6308 94.8344C87.4183 93.0282 86.8058 89.9469 84.7245 86.8594C83.5808 85.1594 80.2745 80.2469 75.1058 80.0594C70.5308 79.8907 65.9245 83.4782 63.8683 88.9719C58.7683 91.8094 53.6683 94.6469 48.5683 97.4844L48.5745 97.4907Z" fill="white"/>
<path d="M61.8739 96.2611C61.2614 98.6986 59.3864 100.174 57.7426 99.9861C56.6676 99.8674 55.9302 99.0611 55.6302 98.6736C54.5489 100.43 52.9114 101.28 51.6989 100.892C51.6302 100.867 50.7677 100.574 50.4927 99.7861C50.1364 98.7736 50.8802 97.3236 52.5052 96.4611C50.3364 97.3736 48.4927 97.5611 47.2677 97.5674C45.7802 97.5799 44.1676 97.5924 43.6426 96.6611C42.9864 95.5049 44.4114 93.6174 44.8489 93.0361C46.7302 90.5424 49.5927 89.6549 51.2927 89.3111C50.1364 88.0986 50.0239 87.4611 50.1864 87.0924C50.7114 85.8924 54.9302 85.9861 57.9427 87.8986C58.6114 88.3236 59.1114 88.7674 59.4552 89.1049C59.4427 87.9424 59.8739 87.0674 60.3614 86.9924C60.9739 86.8924 61.6302 88.0486 61.8739 88.6049C62.1364 89.2174 61.9052 89.6424 62.1739 89.8111C62.5052 90.0174 62.8989 89.5299 63.7114 89.4111C64.4052 89.3111 65.4427 89.4674 65.7239 90.0674C65.9989 90.6424 65.5739 91.6299 64.5677 92.2861C64.7677 92.3111 66.1739 92.5049 66.9364 93.7486C67.1177 94.0424 67.6364 95.0111 67.2864 96.0674C67.1614 96.4361 66.9739 96.7049 66.8302 96.8736C67.9052 96.8736 68.7364 97.7674 68.6927 98.7361C68.6489 99.6861 67.7864 100.417 67.0302 100.399C66.1052 100.38 65.1239 99.2299 65.3677 97.7299C65.1427 97.8049 64.3301 98.0424 63.4051 97.6799C62.4051 97.2861 61.9677 96.4674 61.8677 96.2674L61.8739 96.2611Z" fill="#BBCB64" stroke="black" stroke-width="1.6" stroke-linecap="round" stroke-linejoin="round"/>
<path d="M90.0609 130.848C91.0797 131.548 96.0359 134.817 102.53 133.605C104.036 133.323 108.33 132.298 111.292 128.767C115.517 123.736 115.536 115.392 111.08 108.198C114.323 111.636 116.023 114.979 116.93 117.186C118.136 120.111 121.123 127.379 117.736 131.667C117.073 132.511 116.405 132.936 115.373 133.573C109.005 137.536 99.4172 137.205 92.6734 132.861C91.4172 132.048 90.5047 131.261 90.0547 130.848H90.0609Z" fill="#D0E0F9"/>
<path d="M66.7051 120.354C67.7676 121.061 71.1238 123.08 75.6801 122.705C75.6801 122.705 80.7863 122.286 84.6676 118.398C89.1301 113.936 90.2863 106.548 87.8926 99.4482C89.0488 100.498 90.6488 102.223 91.9238 104.723C93.7801 108.373 93.9613 111.755 93.9238 113.523C92.9676 115.111 91.9426 117.117 91.0926 119.529C89.8926 122.929 89.4488 125.992 89.2988 128.304C88.7113 126.973 87.5988 125.054 85.5801 124.292C84.4613 123.867 83.5551 123.979 79.5363 124.667C73.8801 125.636 73.4238 125.798 72.4738 125.598C70.8738 125.267 68.7676 124.104 66.7051 120.348V120.354Z" fill="#D0E0F9"/>
<path d="M102.324 86.6504C102.53 86.9379 105.542 91.3254 103.636 95.1316C103.349 95.7004 102.855 96.4504 101.974 97.1692C102.555 97.4942 103.13 97.8254 103.711 98.1504C104.842 100.894 105.98 103.638 107.111 106.388C108.436 106.994 109.761 107.6 111.08 108.207C111.38 106.069 111.586 102.5 110.355 98.3817C108.411 91.8567 104.099 88.0566 102.317 86.6566L102.324 86.6504Z" fill="#D0E0F9"/>
<path d="M47.4248 113.859C48.5811 114.309 50.6623 114.934 53.2436 114.691C57.7436 114.259 60.5623 111.472 61.481 110.534C65.7186 106.209 65.6998 100.634 65.6686 99.4531C66.0248 99.9406 66.4998 100.403 67.0373 100.384C67.7373 100.359 68.0185 99.5469 68.431 99.5781C68.881 99.6094 69.3686 100.647 69.7686 104.084C69.3248 104.872 68.881 105.659 68.431 106.453C68.1498 106.466 67.4311 106.541 66.7936 107.084C66.4998 107.334 65.9248 107.828 66.0123 108.497C66.0811 109.034 66.5436 109.497 67.1686 109.678C66.6311 112.634 66.0935 115.591 65.556 118.541C64.7748 117.822 63.5373 116.891 61.8561 116.503C59.2998 115.909 57.6873 117.003 55.4311 117.147C53.5623 117.272 50.8686 116.766 47.4248 113.859Z" fill="#D0E0F9"/>
<path d="M80.4307 81.6309C80.9807 82.3871 82.3494 84.4684 82.3557 87.3996C82.3619 91.7121 79.4182 94.4184 78.9307 94.8559C79.1807 95.3246 79.4369 95.7934 79.6869 96.2684C80.5244 96.3371 81.4807 96.4684 82.5244 96.7246C84.1932 97.1309 85.5619 97.7246 86.6057 98.2746C86.8744 97.1496 87.1494 96.0309 87.4182 94.9059C87.2869 92.9871 86.7432 89.2121 84.1432 85.5121C82.9119 83.7559 81.5494 82.4996 80.4307 81.6309Z" fill="#D0E0F9"/>
<path d="M92.1115 93.4129C91.4552 92.7191 92.124 91.2441 92.1865 91.1066C93.0615 89.2316 95.6802 88.1191 96.4552 88.8004C97.2177 89.4754 96.5177 92.1816 94.7927 93.2191C94.0302 93.6754 92.699 94.0316 92.1115 93.4066V93.4129Z" fill="#D0E0F9"/>
<path d="M90.3361 96.1709C90.1361 95.8334 90.2548 95.3896 90.4861 95.1521C90.9111 94.7146 91.8111 94.8271 92.0361 95.3021C92.2111 95.6834 91.9423 96.2771 91.4673 96.4709C91.0986 96.6209 90.5673 96.5584 90.3361 96.1709Z" fill="#D0E0F9"/>
<path d="M97.0491 114.641C96.5428 114.116 97.4178 112.135 98.8366 111.016C99.9991 110.097 101.78 109.547 102.212 110.085C102.687 110.672 101.518 112.597 100.043 113.685C99.1054 114.378 97.5053 115.122 97.0491 114.641Z" fill="#D0E0F9"/>
<path d="M94.4301 117.767C94.2551 117.474 94.4301 117.036 94.6801 116.811C95.1676 116.386 96.1113 116.611 96.2426 117.011C96.3426 117.311 95.9864 117.742 95.6114 117.917C95.2426 118.092 94.6363 118.117 94.4301 117.767Z" fill="#D0E0F9"/>
<path d="M74.5747 104.699C73.8872 103.899 74.9122 101.43 76.7122 100.318C78.2872 99.3429 80.6434 99.2929 81.1184 100.193C81.6059 101.105 80.0747 102.887 78.7497 103.793C77.4184 104.699 75.2247 105.462 74.5684 104.699H74.5747Z" fill="#D0E0F9"/>
<path d="M70.1676 85.7345C69.8051 85.2032 70.4801 84.0345 71.3239 83.4657C72.1176 82.9345 73.3739 82.7157 73.7426 83.2157C74.1239 83.7345 73.4989 84.972 72.6114 85.5595C71.7989 86.097 70.5176 86.2532 70.1676 85.7345Z" fill="#D0E0F9"/>
<path d="M68.8311 87.4745C68.6124 87.187 68.7311 86.7182 69.0311 86.5682C69.3749 86.3932 69.8686 86.662 69.9124 87.0495C69.9436 87.3058 69.7749 87.5808 69.5061 87.6745C69.2624 87.762 68.9811 87.6745 68.8311 87.4808V87.4745Z" fill="#D0E0F9"/>
<path d="M120.393 141.229C120.849 139.279 122.212 134.097 125.124 130.591C126.53 128.897 127.524 128.535 127.905 128.416C129.593 127.897 130.649 128.704 132.537 128.316C133.943 128.029 134.987 127.247 135.655 126.616C135.074 127.36 134.124 128.441 132.737 129.472C130.255 131.322 129.124 130.966 126.793 132.747C125.199 133.966 124.243 135.26 123.018 136.929C121.793 138.585 120.949 140.104 120.387 141.229H120.393Z" fill="black"/>
<path d="M48.8867 127.55C49.5305 128.413 51.5367 130.869 54.593 131.25C56.0055 131.425 58.1305 131.219 60.068 130.381C60.9117 130.019 61.0742 129.813 61.618 129.775C63.4492 129.656 64.7305 131.775 66.3367 133.588C66.3367 133.588 68.9555 136.55 72.7992 138.538C76.8867 140.65 81.0867 140.394 82.9617 140.275C88.4555 139.931 90.0055 137.856 92.6805 139.113C94.993 140.2 94.9492 142.288 96.9492 144.656C98.7242 146.756 102.137 149.131 109.443 149.488C108.105 149.725 104.18 150.25 100.049 148.119C97.2742 146.688 95.6305 144.681 94.8305 143.544C94.0055 142.8 92.6555 141.75 90.7742 141.05C87.668 139.888 85.568 140.588 81.2742 140.594C76.493 140.6 74.1055 140.606 72.143 139.519C68.5992 137.556 67.7242 134.063 63.1492 132.731C62.5305 132.55 61.968 132.45 61.5305 132.369C57.5742 131.638 55.8805 132.469 53.918 132.025C52.543 131.719 50.7055 130.719 48.8867 127.544V127.55Z" fill="black"/>
<path d="M127.192 85.128C127.205 84.6593 131.18 85.428 134.524 82.8593C136.967 80.978 137.536 78.4968 137.849 78.628C138.249 78.7968 137.967 83.1655 134.98 85.203C131.749 87.4093 127.186 85.6343 127.199 85.128H127.192Z" fill="black"/>
<path d="M93.8369 110.866C95.2369 106.772 96.6307 102.684 98.0307 98.5907C98.2994 98.3782 99.7619 97.2656 101.737 97.5656C102.918 97.7469 103.724 98.3531 104.081 98.6594C104.949 101.122 105.818 103.591 106.687 106.053C105.487 105.872 103.618 105.759 101.512 106.403C96.5994 107.903 94.4182 112.272 93.9932 113.166C93.9432 112.397 93.8932 111.628 93.8432 110.859L93.8369 110.866Z" fill="white"/>
<path d="M68.8672 100.319C70.0422 97.1375 71.2172 93.95 72.3922 90.7688C72.5422 90.6 73.7297 89.3 75.5859 89.4C76.9734 89.475 77.8672 90.2938 78.1047 90.525C78.7109 92.525 79.3234 94.525 79.9297 96.525C78.9734 96.525 77.4047 96.6688 75.8109 97.5563C74.7734 98.1375 74.1484 98.8 73.0922 99.9375C72.2359 100.863 71.0922 102.213 69.9172 104.019" fill="white"/>
<path d="M61.8739 96.2611C61.2614 98.6986 59.3864 100.174 57.7426 99.9861C56.6676 99.8674 55.9302 99.0611 55.6302 98.6736C54.5489 100.43 52.9114 101.28 51.6989 100.892C51.6302 100.867 50.7677 100.574 50.4927 99.7861C50.1364 98.7736 50.8802 97.3236 52.5052 96.4611C50.3364 97.3736 48.4927 97.5611 47.2677 97.5674C45.7802 97.5799 44.1676 97.5924 43.6426 96.6611C42.9864 95.5049 44.4114 93.6174 44.8489 93.0361C46.7302 90.5424 49.5927 89.6549 51.2927 89.3111C50.1364 88.0986 50.0239 87.4611 50.1864 87.0924C50.7114 85.8924 54.9302 85.9861 57.9427 87.8986C58.6114 88.3236 59.1114 88.7674 59.4552 89.1049C59.4427 87.9424 59.8739 87.0674 60.3614 86.9924C60.9739 86.8924 61.6302 88.0486 61.8739 88.6049C62.1364 89.2174 61.9052 89.6424 62.1739 89.8111C62.5052 90.0174 62.8989 89.5299 63.7114 89.4111C64.4052 89.3111 65.4427 89.4674 65.7239 90.0674C65.9989 90.6424 65.5739 91.6299 64.5677 92.2861C64.7677 92.3111 66.1739 92.5049 66.9364 93.7486C67.1177 94.0424 67.6364 95.0111 67.2864 96.0674C67.1614 96.4361 66.9739 96.7049 66.8302 96.8736C67.9052 96.8736 68.7364 97.7674 68.6927 98.7361C68.6489 99.6861 67.7864 100.417 67.0302 100.399C66.1052 100.38 65.1239 99.2299 65.3677 97.7299C65.1427 97.8049 64.3301 98.0424 63.4051 97.6799C62.4051 97.2861 61.9677 96.4674 61.8677 96.2674L61.8739 96.2611Z" stroke="black" stroke-width="1.6" stroke-linecap="round" stroke-linejoin="round"/>
<path d="M89.4741 129.392C89.0116 128.055 88.0866 126.049 86.1491 124.924C81.9241 122.474 77.9866 127.142 72.4741 125.605C66.7803 124.017 67.6429 118.099 61.8991 116.842C57.6304 115.905 54.3616 118.561 50.4678 116.592C48.4553 115.574 46.8928 113.974 46.8928 113.974C45.9678 113.024 45.3428 112.105 44.9303 111.405C44.6741 109.367 44.7741 107.655 44.9303 106.417C45.2991 103.492 46.2303 101.436 46.4428 100.98C47.1491 99.4612 47.9491 98.2986 48.5804 97.5049" stroke="black" stroke-width="1.6" stroke-linecap="round" stroke-linejoin="round"/>
<path d="M68.5801 99.248C68.7863 99.8105 68.9863 100.454 69.1488 101.173C69.3363 102.004 69.4426 102.767 69.4988 103.442" stroke="black" stroke-width="1.6" stroke-linecap="round" stroke-linejoin="round"/>
<path d="M65.4238 118.347C65.5488 117.503 65.7363 116.322 66.0301 114.922C66.3613 113.328 66.8551 110.934 67.6926 108.628C68.4051 106.666 69.5676 103.472 72.4301 100.572C73.8801 99.1031 75.6738 97.2781 78.6238 96.6906C81.4051 96.1406 83.6738 96.9844 84.4676 97.2969C87.0113 98.2844 88.4676 99.9406 89.4051 101.022C91.9426 103.966 92.7176 107.159 93.2301 109.284C93.5988 110.803 93.7551 112.091 93.8363 112.959" stroke="black" stroke-width="1.6" stroke-linecap="round" stroke-linejoin="round"/>
<path d="M92.924 133.556C91.249 132.537 90.3303 131.525 89.799 130.331C89.3928 129.406 89.2928 128.55 89.2803 127.969C89.524 126.031 91.1178 114.456 97.7553 108.925C98.9928 107.894 101.124 106.119 104.249 105.937C107.099 105.775 109.28 107.025 109.943 107.419C111.749 108.481 112.687 109.769 114.024 111.65C114.512 112.331 116.874 115.7 118.355 120.869C119.312 124.219 119.312 126.269 119.212 127.544C119.137 128.506 119.087 129.106 118.812 129.862C117.824 132.537 115.155 133.794 113.168 134.7C112.043 135.212 108.968 136.487 104.505 136.562C104.505 136.562 98.0303 136.675 92.924 133.569V133.556Z" stroke="black" stroke-width="1.6" stroke-linecap="round" stroke-linejoin="round"/>
<path d="M119.505 128.269C119.68 127.375 119.842 126.219 119.861 124.869C119.886 122.431 119.405 121.575 119.792 119.656C119.98 118.725 120.217 117.581 121.155 116.712C121.861 116.056 122.636 115.869 124.33 115.581C128.755 114.819 129.123 115.112 130.448 114.6C132.823 113.675 134.123 111.769 134.455 111.275C134.83 110.706 136.798 107.594 135.661 104.025C134.761 101.206 132.467 99.8063 131.58 99.2625C128.33 97.2813 124.548 97.4437 122.592 97.525C120.242 97.625 119.317 98.0625 117.455 97.525C116.086 97.125 114.698 96.725 113.523 95.5625C113.086 95.125 112.623 94.5313 111.711 94.125C111.011 93.8125 110.348 93.75 109.898 93.75" stroke="black" stroke-width="1.6" stroke-linecap="round" stroke-linejoin="round"/>
<path d="M44.874 107.119C44.2303 107.775 43.3428 108.8 42.4803 110.194C41.4115 111.925 40.849 112.844 40.9678 114.075C41.1178 115.619 42.2553 116.738 42.9803 117.45C43.6865 118.144 44.3865 118.588 44.8928 118.863C49.599 120.788 57.9866 124.2 69.5741 128.888C78.5428 132.513 84.149 134.75 92.2365 136.644C92.2365 136.644 96.0178 137.681 102.837 138.606C107.843 139.288 109.705 139.194 111.524 138.731C114.787 137.9 117.105 136.1 118.474 134.8C122.987 130.75 127.718 126.106 132.474 120.8C135.33 117.613 137.943 114.481 140.33 111.431C140.737 110.888 141.899 109.181 141.643 107C141.443 105.344 140.53 104.25 139.63 103.175C138.124 101.375 136.468 100.381 135.499 99.8502C132.305 98.1127 129.468 97.6064 124.318 96.7252C118.537 95.7377 118.168 96.1502 116.362 95.2127C115.787 94.9127 114.074 93.9689 111.68 93.5252C110.862 93.3752 109.387 93.1752 109.337 93.3752C109.312 93.4689 109.605 93.6252 109.893 93.7502" stroke="black" stroke-width="1.6" stroke-linecap="round" stroke-linejoin="round"/>
<path d="M86.4746 98.3289C86.8934 96.4727 88.0371 92.7102 91.3809 89.6227C92.8871 88.2289 95.7309 85.6039 99.5184 85.8852C102.518 86.1102 104.537 88.0352 105.762 89.2102C110.237 93.4852 110.806 99.4602 111.1 102.56C111.331 104.96 111.206 106.935 111.075 108.204" stroke="black" stroke-width="1.6" stroke-linecap="round" stroke-linejoin="round"/>
<path d="M63.7109 89.4103C64.2609 87.8978 65.5609 85.0291 68.4984 82.7853C69.7172 81.8541 73.1547 79.2291 77.1734 80.0791C79.5984 80.5916 81.1172 82.1353 82.2484 83.3166C86.4484 87.6978 87.0734 93.4041 87.1859 95.9541" stroke="black" stroke-width="1.6" stroke-linecap="round" stroke-linejoin="round"/>
<path d="M116.212 123.653C116.181 124.147 116.05 125.066 115.406 125.903C114.456 127.147 112.8 127.541 111.387 127.509C108.287 127.434 106.437 124.703 106.225 124.378C106.125 124.222 105.775 123.909 105.25 123.772C105.237 123.772 105.225 123.766 105.212 123.759H105.2C105.044 123.722 104.906 123.709 104.787 123.716C104.669 123.716 104.531 123.716 104.375 123.753H104.362C104.35 123.753 104.337 123.759 104.325 123.766C103.806 123.903 103.456 124.216 103.35 124.372C103.137 124.697 101.294 127.428 98.1873 127.503C96.7811 127.534 95.1123 127.141 94.1685 125.897C93.531 125.059 93.3998 124.141 93.3623 123.647C93.4248 123.847 93.5998 124.316 94.0248 124.509C94.3998 124.678 94.7748 124.559 94.9185 124.516C96.5435 124.016 97.3061 119.847 100.144 118.403C100.694 118.122 101.219 117.991 101.762 118.016C103.125 118.078 104.069 119.116 104.394 119.516C104.4 119.528 104.406 119.534 104.412 119.547C104.425 119.566 104.544 119.734 104.762 119.741C105 119.747 105.131 119.559 105.137 119.547C105.144 119.534 105.15 119.528 105.156 119.516C105.481 119.116 106.425 118.084 107.787 118.016C108.331 117.991 108.856 118.122 109.406 118.403C112.25 119.841 113.012 124.009 114.637 124.516C114.781 124.559 115.156 124.678 115.525 124.509C115.95 124.316 116.125 123.853 116.187 123.647L116.212 123.653Z" stroke="black" stroke-width="1.6" stroke-linecap="round" stroke-linejoin="round"/>
<path d="M75.2797 92.1113C76.8709 92.1113 78.1609 91.5097 78.1609 90.7676C78.1609 90.0254 76.8709 89.4238 75.2797 89.4238C73.6884 89.4238 72.3984 90.0254 72.3984 90.7676C72.3984 91.5097 73.6884 92.1113 75.2797 92.1113Z" stroke="black" stroke-width="1.6" stroke-linecap="round" stroke-linejoin="round"/>
<path d="M104.267 98.834C104.267 99.5777 102.861 100.178 101.123 100.178C99.3857 100.178 97.9795 99.5777 97.9795 98.834C97.9795 98.0902 99.3857 97.4902 101.123 97.4902C102.861 97.4902 104.267 98.0902 104.267 98.834Z" stroke="black" stroke-width="1.6" stroke-linecap="round" stroke-linejoin="round"/>
<path d="M68.9873 99.9971C70.1186 96.8596 71.2561 93.7283 72.3873 90.5908" stroke="black" stroke-width="1.6" stroke-linecap="round" stroke-linejoin="round"/>
<path d="M78.1182 90.5225C78.6744 92.5287 79.2307 94.5287 79.7869 96.535" stroke="black" stroke-width="1.6" stroke-linecap="round" stroke-linejoin="round"/>
<path d="M93.793 110.494C95.2055 106.525 96.618 102.562 98.0305 98.5938" stroke="black" stroke-width="1.6" stroke-linecap="round" stroke-linejoin="round"/>
<path d="M104.268 98.8379C105.074 101.244 105.88 103.65 106.686 106.063" stroke="black" stroke-width="1.6" stroke-linecap="round" stroke-linejoin="round"/>
<path d="M41.0361 114.48C43.0236 119.324 45.2736 122.968 47.0111 125.436C49.4111 128.849 50.6549 130.574 52.9049 131.63C56.5611 133.349 58.6049 131.511 62.8049 132.636C67.2486 133.824 67.0111 136.43 71.3424 138.905C79.3924 143.505 85.3424 137.436 93.0736 142.18C96.7611 144.443 96.0924 146.243 100.049 148.124C100.686 148.424 107.336 151.461 113.574 148.73C121.736 145.149 120.574 135.436 129.286 131.43C130.349 130.943 132.267 130.211 134.199 128.33C136.149 126.43 137.149 124.293 138.28 121.08C139.399 117.893 140.711 113.436 141.605 107.861" stroke="black" stroke-width="1.6" stroke-linecap="round" stroke-linejoin="round"/>
<path d="M71.7123 80.4856C70.9436 78.4293 70.7436 76.1356 71.2686 73.8356L79.2873 38.7981C80.7123 32.5606 86.9311 28.6543 93.1748 30.0856L147.331 42.4793C153.569 43.9043 157.475 50.1231 156.044 56.3668L148.025 91.4043C146.787 96.8043 141.962 100.454 136.644 100.411" stroke="black" stroke-width="1.6" stroke-linecap="round" stroke-linejoin="round"/>
<path d="M132.9 89.6602L85.6373 78.8415C82.5123 78.1227 80.556 75.0102 81.2685 71.879L87.3373 45.3602C88.056 42.229 91.1685 40.279 94.2998 40.9915L141.562 51.8102C144.694 52.529 146.644 55.6415 145.931 58.7727L139.862 85.2915C139.144 88.4165 136.031 90.3727 132.9 89.6602Z" stroke="black" stroke-width="1.6" stroke-linecap="round" stroke-linejoin="round"/>
<path d="M110.968 40.4867V37.718C110.949 37.3305 111.149 36.968 111.474 36.7867C111.856 36.5742 112.249 36.7117 112.305 36.7367C115.737 37.5617 119.174 38.3805 122.606 39.2055C122.643 39.218 123.118 39.3742 123.262 39.8617C123.38 40.268 123.174 40.5992 123.143 40.6492C122.63 41.5367 122.112 42.4242 121.599 43.3117C121.549 43.3992 121.412 43.6055 121.143 43.7367C120.843 43.8867 120.556 43.8555 120.462 43.8367C117.581 43.0492 114.706 42.2555 111.824 41.468C111.712 41.4305 111.437 41.318 111.218 41.043C111.049 40.8242 110.987 40.6055 110.968 40.4867Z" stroke="black" stroke-width="1.6" stroke-linecap="round" stroke-linejoin="round"/>
<path d="M153.148 48.2666C151.805 49.0416 150.461 49.8104 149.117 50.5854" stroke="black" stroke-width="1.6" stroke-linecap="round" stroke-linejoin="round"/>
<path d="M140.762 95.3359C139.543 93.2297 138.324 91.1234 137.105 89.0234" stroke="black" stroke-width="1.6" stroke-linecap="round" stroke-linejoin="round"/>
<path d="M116.212 123.653C116.181 124.147 116.05 125.066 115.406 125.903C114.456 127.147 112.8 127.541 111.387 127.509C108.287 127.434 106.437 124.703 106.225 124.378C106.125 124.222 105.775 123.909 105.25 123.772C105.237 123.772 105.225 123.766 105.212 123.759H105.2C105.044 123.722 104.906 123.709 104.787 123.716C104.669 123.716 104.531 123.716 104.375 123.753H104.362C104.35 123.753 104.337 123.759 104.325 123.766C103.806 123.903 103.456 124.216 103.35 124.372C103.137 124.697 101.294 127.428 98.1873 127.503C96.7811 127.534 95.1123 127.141 94.1685 125.897C93.531 125.059 93.3998 124.141 93.3623 123.647C93.4248 123.847 93.5998 124.316 94.0248 124.509C94.3998 124.678 94.7748 124.559 94.9185 124.516C96.5435 124.016 97.3061 119.847 100.144 118.403C100.694 118.122 101.219 117.991 101.762 118.016C103.125 118.078 104.069 119.116 104.394 119.516C104.4 119.528 104.406 119.534 104.412 119.547C104.425 119.566 104.544 119.734 104.762 119.741C105 119.747 105.131 119.559 105.137 119.547C105.144 119.534 105.15 119.528 105.156 119.516C105.481 119.116 106.425 118.084 107.787 118.016C108.331 117.991 108.856 118.122 109.406 118.403C112.25 119.841 113.012 124.009 114.637 124.516C114.781 124.559 115.156 124.678 115.525 124.509C115.95 124.316 116.125 123.853 116.187 123.647L116.212 123.653Z" fill="#BBCB64" stroke="black" stroke-width="1.6" stroke-linecap="round" stroke-linejoin="round"/>
<path d="M94.4428 108.755C94.1053 109.111 93.4615 108.955 93.399 108.936C93.2615 109.799 93.0678 110.73 92.8115 111.717C92.6428 112.349 92.4615 112.955 92.274 113.511C92.1428 113.917 91.824 114.711 91.0365 115.242C90.624 115.524 90.249 115.617 89.724 115.742C88.499 116.036 87.474 115.992 86.999 115.961C85.6177 115.855 84.7303 115.786 83.924 115.155C83.049 114.467 82.6678 113.442 82.5053 113.011C81.7803 111.055 81.7303 110.855 81.7303 110.855C81.7053 110.699 81.624 110.292 81.2865 110.074C81.099 109.955 80.8553 109.949 80.3678 109.949C79.8053 109.949 79.524 109.949 79.3052 110.092C79.0115 110.292 78.8928 110.624 78.8428 110.861C78.8428 110.861 78.7803 111.061 78.0053 112.992C77.8303 113.417 77.424 114.436 76.5302 115.099C75.7052 115.711 74.8178 115.755 73.4303 115.824C72.9553 115.849 71.9302 115.861 70.7115 115.536C70.1927 115.399 69.8178 115.292 69.4115 114.999C68.6428 114.449 68.3365 113.642 68.2178 113.236C68.0428 112.667 67.8803 112.067 67.7303 111.43C67.4928 110.436 67.3303 109.499 67.2115 108.63C67.1428 108.642 66.499 108.78 66.174 108.417C65.799 107.999 66.1115 107.23 66.4615 106.817C66.974 106.217 67.7427 106.205 67.8802 106.211C69.6052 106.067 71.4678 105.98 73.4365 105.999C74.424 106.005 75.374 106.036 76.299 106.086C76.8928 106.174 77.2865 106.386 77.549 106.586C78.024 106.949 77.9928 107.192 78.449 107.467C78.7865 107.661 79.1178 107.705 79.7865 107.786C80.0428 107.792 80.4053 107.786 80.8303 107.749C81.5115 107.686 81.849 107.655 82.1928 107.467C82.6615 107.205 82.6365 106.961 83.1178 106.611C83.3865 106.417 83.7865 106.217 84.3803 106.149C85.299 106.124 86.2553 106.117 87.2428 106.136C89.2115 106.174 91.0678 106.305 92.7928 106.492C92.9303 106.492 93.699 106.524 94.1928 107.136C94.5303 107.555 94.824 108.336 94.4365 108.742L94.4428 108.755Z" fill="#BBCB64"/>
<path d="M69.2928 108.337C68.6491 109.144 69.0803 110.519 69.3553 111.394C69.5803 112.112 69.7741 112.725 70.3491 113.269C71.2178 114.081 72.3116 114.125 72.9303 114.156C73.5928 114.187 74.7678 114.237 75.7303 113.462C76.5865 112.775 76.8178 111.787 77.1116 110.55C77.3116 109.7 77.4178 109.275 77.2803 108.944C76.6928 107.462 73.4366 107.619 71.5803 107.712C69.9116 107.794 69.5115 108.062 69.2865 108.344L69.2928 108.337Z" fill="#D0E0F9"/>
<path d="M91.5997 108.743C92.2059 109.58 91.7184 110.931 91.3997 111.793C91.1434 112.505 90.9247 113.105 90.3247 113.618C89.4247 114.387 88.3247 114.387 87.7059 114.387C87.0434 114.387 85.8684 114.387 84.9434 113.568C84.1184 112.843 83.9309 111.849 83.6872 110.593C83.5247 109.737 83.4434 109.306 83.5872 108.981C84.2372 107.524 87.4872 107.83 89.3372 107.999C90.9997 108.155 91.3872 108.443 91.5997 108.737V108.743Z" fill="#D0E0F9"/>
<path opacity="0.54" d="M71.8553 107.703C72.2928 107.684 72.724 107.665 73.1615 107.646C72.149 109.415 71.1365 111.184 70.1303 112.959C69.9178 112.59 69.7115 112.215 69.499 111.847C70.2865 110.465 71.0678 109.09 71.8553 107.709V107.703Z" fill="white"/>
<path opacity="0.54" d="M73.6869 107.568L74.3932 107.681C73.2057 109.606 72.0182 111.531 70.8369 113.456C70.7119 113.35 70.5869 113.243 70.4619 113.137C71.5369 111.281 72.6119 109.425 73.6869 107.568Z" fill="white"/>
<path opacity="0.54" d="M85.943 107.975C85.318 109.313 84.693 110.644 84.0742 111.981C84.1617 112.263 84.2492 112.538 84.3367 112.819C85.143 111.163 85.9492 109.513 86.7555 107.856C86.4867 107.894 86.2117 107.931 85.943 107.975Z" fill="white"/>
<path opacity="0.54" d="M87.2619 107.861C86.3994 109.668 85.5369 111.474 84.6807 113.286C84.9682 113.518 85.2494 113.749 85.5369 113.98C86.5182 111.961 87.4932 109.949 88.4744 107.93C88.0744 107.905 87.6682 107.886 87.2682 107.861H87.2619Z" fill="white"/>
<path d="M94.4428 108.755C94.1053 109.111 93.4615 108.955 93.399 108.936C93.2615 109.799 93.0678 110.73 92.8115 111.717C92.6428 112.349 92.4615 112.955 92.274 113.511C92.1428 113.917 91.824 114.711 91.0365 115.242C90.624 115.524 90.249 115.617 89.724 115.742C88.499 116.036 87.474 115.992 86.999 115.961C85.6177 115.855 84.7303 115.786 83.924 115.155C83.049 114.467 82.6678 113.442 82.5053 113.011C81.7803 111.055 81.7303 110.855 81.7303 110.855C81.7053 110.699 81.624 110.292 81.2865 110.074C81.099 109.955 80.8553 109.949 80.3678 109.949C79.8053 109.949 79.524 109.949 79.3052 110.092C79.0115 110.292 78.8928 110.624 78.8428 110.861C78.8428 110.861 78.7803 111.061 78.0053 112.992C77.8303 113.417 77.424 114.436 76.5302 115.099C75.7052 115.711 74.8178 115.755 73.4303 115.824C72.9553 115.849 71.9302 115.861 70.7115 115.536C70.1927 115.399 69.8178 115.292 69.4115 114.999C68.6428 114.449 68.3365 113.642 68.2178 113.236C68.0428 112.667 67.8803 112.067 67.7303 111.43C67.4928 110.436 67.3303 109.499 67.2115 108.63C67.1428 108.642 66.499 108.78 66.174 108.417C65.799 107.999 66.1115 107.23 66.4615 106.817C66.974 106.217 67.7427 106.205 67.8802 106.211C69.6052 106.067 71.4678 105.98 73.4365 105.999C74.424 106.005 75.374 106.036 76.299 106.086C76.8928 106.174 77.2865 106.386 77.549 106.586C78.024 106.949 77.9928 107.192 78.449 107.467C78.7865 107.661 79.1178 107.705 79.7865 107.786C80.0428 107.792 80.4053 107.786 80.8303 107.749C81.5115 107.686 81.849 107.655 82.1928 107.467C82.6615 107.205 82.6365 106.961 83.1178 106.611C83.3865 106.417 83.7865 106.217 84.3803 106.149C85.299 106.124 86.2553 106.117 87.2428 106.136C89.2115 106.174 91.0678 106.305 92.7928 106.492C92.9303 106.492 93.699 106.524 94.1928 107.136C94.5303 107.555 94.824 108.336 94.4365 108.742L94.4428 108.755Z" stroke="black" stroke-width="1.6" stroke-linecap="round" stroke-linejoin="round"/>
<path d="M69.2928 108.337C68.6491 109.144 69.0803 110.519 69.3553 111.394C69.5803 112.112 69.7741 112.725 70.3491 113.269C71.2178 114.081 72.3116 114.125 72.9303 114.156C73.5928 114.187 74.7678 114.237 75.7303 113.462C76.5865 112.775 76.8178 111.787 77.1116 110.55C77.3116 109.7 77.4178 109.275 77.2803 108.944C76.6928 107.462 73.4366 107.619 71.5803 107.712C69.9116 107.794 69.5115 108.062 69.2865 108.344L69.2928 108.337Z" stroke="black" stroke-width="1.6" stroke-linecap="round" stroke-linejoin="round"/>
<path d="M91.5997 108.743C92.2059 109.58 91.7184 110.931 91.3997 111.793C91.1434 112.505 90.9247 113.105 90.3247 113.618C89.4247 114.387 88.3247 114.387 87.7059 114.387C87.0434 114.387 85.8684 114.387 84.9434 113.568C84.1184 112.843 83.9309 111.849 83.6872 110.593C83.5247 109.737 83.4434 109.306 83.5872 108.981C84.2372 107.524 87.4872 107.83 89.3372 107.999C90.9997 108.155 91.3872 108.443 91.5997 108.737V108.743Z" stroke="black" stroke-width="1.6" stroke-linecap="round" stroke-linejoin="round"/>
<path d="M66.9371 107.667C66.9184 107.611 67.0684 107.492 67.2184 107.461C67.4184 107.417 67.6246 107.53 67.6184 107.592C67.6059 107.698 66.9684 107.774 66.9371 107.667Z" stroke="black" stroke-width="1.6" stroke-linecap="round" stroke-linejoin="round"/>
<path d="M92.9545 107.967C92.9482 107.911 93.1107 107.817 93.267 107.817C93.4732 107.817 93.6545 107.955 93.6357 108.017C93.6107 108.117 92.967 108.08 92.9482 107.974L92.9545 107.967Z" stroke="black" stroke-width="1.6" stroke-linecap="round" stroke-linejoin="round"/>
<path d="M138.476 134.024L118.589 137.495C114.416 138.223 111.624 142.196 112.353 146.368L115.823 166.255C116.552 170.427 120.524 173.219 124.697 172.491L144.583 169.02C148.756 168.292 151.548 164.319 150.82 160.147L147.349 140.26C146.621 136.088 142.648 133.296 138.476 134.024Z" fill="#BBCB64" stroke="black" stroke-width="1.6" stroke-linecap="round" stroke-linejoin="round"/>
<path d="M117.407 144.039C116.863 143.521 117.369 142.121 117.825 141.364C118.775 139.777 120.5 139.333 120.963 139.233C122.432 138.914 124.538 139.127 124.769 139.946C125.138 141.246 120.588 143.346 120.332 143.458C119.207 143.971 117.932 144.552 117.4 144.046L117.407 144.039Z" fill="white"/>
<path d="M117.825 146.09C118.018 145.483 118.668 145.115 119.25 145.127C120.237 145.146 121.137 146.265 120.837 147.133C120.618 147.771 119.793 148.159 119.081 148.015C118.225 147.834 117.568 146.896 117.825 146.09Z" fill="white"/>
<path d="M139.283 134.002L120.726 137.241C116.833 137.921 114.228 141.628 114.907 145.521L118.146 164.078C118.825 167.972 122.532 170.577 126.426 169.897L144.983 166.659C148.876 165.979 151.482 162.272 150.802 158.379L147.563 139.822C146.884 135.928 143.177 133.323 139.283 134.002Z" stroke="black" stroke-width="1.6" stroke-linecap="round" stroke-linejoin="round"/>
<path d="M140.481 147.615C141.868 147.34 142.562 147.203 143.1 147.515C143.156 147.546 143.206 147.584 143.256 147.621C143.75 147.996 143.887 148.69 144.162 150.078C144.437 151.465 144.575 152.159 144.262 152.696C144.231 152.753 144.193 152.803 144.156 152.853C143.781 153.346 143.087 153.484 141.7 153.759L139.574 154.184C138.074 154.484 137.318 154.634 136.95 155.19C136.575 155.753 136.725 156.503 137.025 158.003L137.45 160.128C137.725 161.515 137.862 162.209 137.55 162.74C137.518 162.796 137.481 162.846 137.443 162.896C137.068 163.39 136.375 163.528 134.993 163.803C133.606 164.078 132.912 164.215 132.381 163.903C132.324 163.871 132.274 163.834 132.224 163.796C131.731 163.421 131.593 162.728 131.318 161.346L130.893 159.221C130.593 157.721 130.443 156.965 129.887 156.596C129.324 156.221 128.574 156.371 127.074 156.671L124.95 157.096C123.562 157.371 122.868 157.509 122.331 157.196C122.275 157.165 122.225 157.128 122.175 157.09C121.681 156.715 121.543 156.021 121.268 154.634C120.993 153.246 120.856 152.553 121.168 152.015C121.2 151.959 121.237 151.909 121.275 151.859C121.65 151.365 122.343 151.228 123.731 150.953L125.856 150.528C127.356 150.228 128.112 150.078 128.481 149.521C128.849 148.965 128.706 148.209 128.406 146.709L127.987 144.584C127.712 143.196 127.575 142.503 127.887 141.971C127.918 141.915 127.956 141.865 127.993 141.815C128.368 141.321 129.062 141.184 130.443 140.909C131.831 140.634 132.525 140.496 133.056 140.809C133.112 140.84 133.162 140.878 133.212 140.915C133.706 141.29 133.843 141.984 134.118 143.365L134.537 145.49C134.837 146.99 134.987 147.746 135.543 148.115C136.1 148.484 136.856 148.34 138.356 148.04L140.481 147.615Z" fill="white" stroke="black" stroke-width="1.6" stroke-linecap="round" stroke-linejoin="round"/>
<path d="M133.269 158.585C133.419 164.71 133.575 170.835 133.725 176.96C133.769 178.754 135.738 179.791 137.188 178.779C138.156 178.104 139.125 177.429 140.094 176.76C140.938 176.173 142.088 176.485 142.544 177.416C143.406 179.185 144.275 180.96 145.138 182.729C145.694 183.866 147.069 184.285 148.144 183.654L150.481 182.273C151.563 181.635 151.894 180.191 151.194 179.129C150.2 177.616 149.206 176.104 148.213 174.585C147.631 173.698 147.969 172.485 148.931 172.048C149.894 171.61 150.856 171.179 151.819 170.741C153.425 170.016 153.606 167.754 152.144 166.766C147.069 163.348 141.988 159.923 136.913 156.504C135.325 155.435 133.213 156.635 133.263 158.579L133.269 158.585Z" fill="white" stroke="black" stroke-width="1.6" stroke-linecap="round" stroke-linejoin="round"/>
<path d="M136.275 165.665C137.306 165.365 139.544 167.728 139.6 170.297C139.663 173.128 137.069 175.684 136.075 175.334C135.488 175.128 135.444 173.903 135.369 171.809C135.288 169.447 135.163 165.99 136.275 165.665Z" fill="#BBCB64"/>
<path d="M135.568 162.944C134.731 162.419 134.731 160.444 135.668 159.919C136.606 159.4 138.287 160.437 138.287 161.431C138.287 162.469 136.45 163.494 135.568 162.944Z" fill="#BBCB64"/>
</svg>
