<svg width="225" height="225" viewBox="0 0 225 225" fill="none" xmlns="http://www.w3.org/2000/svg">
<path d="M185.774 196.823C185.366 197.069 184.958 197.301 184.55 197.526C179.404 200.353 174.018 202.062 168.667 202.237C139.234 203.187 128.195 157.926 100.415 160.999C79.1379 163.348 75.4465 195.171 50.5137 196.078C49.5644 196.113 39.4043 196.324 30.6926 190.551C30.3903 190.355 30.0949 190.151 29.7996 189.933C27.9012 188.576 26.0941 186.909 24.491 184.877C16.8269 175.174 18.6059 163.214 18.8941 161.491C20.8559 149.573 28.5691 148.744 30.7488 139.751C34.9746 122.334 9.04341 113.095 7.69341 90.6726C6.68091 73.8679 19.8715 56.4444 34.2082 49.3358C46.4637 43.2538 54.7184 47.114 66.4324 49.2866C66.9879 49.3921 67.5574 49.4905 68.134 49.5819C74.2793 50.5944 81.416 51.0233 90.5356 49.3358C117.353 44.3507 123.66 28.0101 141.442 25.5351C141.793 25.4788 142.152 25.4366 142.518 25.4015C144.43 25.1976 146.476 25.1554 148.691 25.296C159.653 26.0061 172.9 31.1671 180.747 40.0265C181.091 40.4202 181.436 40.828 181.759 41.2429C183.496 43.4085 184.902 45.778 185.893 48.3444C190.288 59.7491 184.656 70.5843 180.62 80.5124C180.367 81.1452 180.114 81.771 179.875 82.3968C177.189 89.3437 175.677 95.8194 179.467 101.705C182.23 105.994 186.28 107.604 190.935 109.502C191.202 109.608 191.476 109.72 191.743 109.833C197.038 112.005 203.043 114.748 208.808 122.222C209.279 122.841 214.616 129.872 216.528 137.775C221.268 157.392 205.518 185.215 185.774 196.823Z" fill="#DCE0C5"/>
<path d="M180.62 80.5132C180.367 81.146 180.114 81.7718 179.875 82.3976C172.97 84.514 166.129 86.8343 159.365 89.4147C145.07 94.864 131.155 101.312 117.747 108.673C104.521 115.937 91.7522 124.086 79.6725 133.121C68.4787 141.495 57.8686 150.783 48.8264 161.478C46.2389 164.544 43.7779 167.722 41.4998 171.019C41.2678 171.343 41.0498 171.666 40.8248 171.997C39.4045 174.092 38.0475 176.237 36.7748 178.43C34.4897 182.354 32.5068 186.411 30.6928 190.552C30.3904 190.355 30.0951 190.151 29.7998 189.934C32.4436 183.001 36.0787 176.455 40.3256 170.316C40.5506 169.979 40.7826 169.641 41.0217 169.311C44.0381 165.043 47.3357 160.986 50.7881 157.14C60.224 146.621 71.1084 137.48 82.5342 129.205C95.0076 120.176 108.121 112.027 121.726 104.827C135.367 97.6062 149.507 91.3343 164.005 86.0608C169.49 84.071 175.037 82.2147 180.62 80.5132Z" fill="white"/>
<path d="M35.8393 119.492C34.9464 132.324 35.8464 145.332 38.3355 157.946C39.0878 161.757 39.9878 165.546 41.0214 169.308C41.176 169.885 41.3378 170.454 41.4995 171.017C43.8128 179.074 46.7659 186.957 50.3378 194.494C50.394 194.599 50.2323 194.698 50.1761 194.585C49.4518 193.179 48.7698 191.759 48.0667 190.339C45.1346 184.467 42.7511 178.301 40.8245 171.994C40.6488 171.439 40.487 170.876 40.3253 170.314C38.687 164.745 37.4073 159.078 36.4089 153.403C34.1589 140.599 33.6315 127.339 34.9815 114.408C35.6706 107.757 36.901 101.147 38.8979 94.7557C40.7893 88.6878 43.3979 82.8589 46.4706 77.2972C52.0182 67.2776 59.0003 58.0175 66.4323 49.2847C66.9878 49.3901 67.5573 49.4886 68.1339 49.58C67.8245 49.9315 67.5292 50.2831 67.2268 50.6417C59.1198 60.2534 51.4627 70.4698 45.7534 81.7057C39.7557 93.5182 36.7604 106.322 35.8393 119.492Z" fill="white"/>
<path d="M180.465 178.639C181.71 184.819 183.397 190.965 185.774 196.822C185.366 197.068 184.958 197.3 184.55 197.525C181.695 190.683 179.832 183.469 178.546 176.185C177.118 168.099 176.19 159.83 176.162 151.618C176.127 142.962 177.294 134.229 180.704 126.221C182.377 122.283 184.536 118.592 186.927 115.055C188.122 113.29 189.381 111.575 190.66 109.873C190.752 109.747 190.843 109.627 190.935 109.5C191.202 109.606 191.476 109.718 191.743 109.831C187.433 116.033 183.221 122.354 180.732 129.547C177.92 137.689 177.266 146.372 177.596 154.936C177.899 162.875 178.897 170.848 180.465 178.639Z" fill="white"/>
<path d="M181.759 41.2418C173.708 41.2418 165.615 39.9551 158.148 36.8894C154.534 35.4129 151.088 33.5496 147.91 31.2785C145.555 29.598 143.34 27.7066 141.441 25.534C141.793 25.4777 142.152 25.4355 142.517 25.4004C144.76 27.5309 147.144 29.5066 149.731 31.2152C156.334 35.5605 163.934 38.2183 171.739 39.3574C174.72 39.7863 177.73 39.9973 180.746 40.0254C181.091 40.4191 181.435 40.827 181.759 41.2418Z" fill="white"/>
<path d="M88.2794 178.654C87.1122 176.411 89.327 173.515 90.4661 171.912C93.2575 167.981 99.4168 163.277 105.443 165.295C108.1 166.181 111.644 168.635 111.771 171.954C111.939 176.25 106.926 179.899 102.243 181.2C97.0403 182.648 89.9387 181.84 88.2723 178.654H88.2794Z" fill="#DCE0C5"/>
<path d="M86.3585 158.497C95.3585 156.922 104.359 155.34 113.359 153.765C113.288 153.181 112.62 148.449 108.486 146.129C104.436 143.858 100.189 145.665 99.0851 146.129C95.7594 147.542 93.5867 150.341 92.7921 151.374C91.7656 152.703 91.3577 153.61 89.8741 155.27C88.5312 156.76 87.2516 157.822 86.3516 158.497H86.3585Z" fill="#BBCB64"/>
<path d="M67.9504 68.435C66.5723 69.8904 65.2012 71.3318 63.8231 72.7803C62.4309 71.3178 61.0386 69.8482 59.6394 68.3857C57.9378 69.9818 56.2434 71.5709 54.5348 73.167C53.8106 67.8795 54.0074 63.6537 54.3238 60.8342C54.584 58.4014 55.027 56.2779 56.1098 54.035C56.3348 53.5709 56.5739 53.142 56.8129 52.7553C56.8129 52.7482 56.82 52.7482 56.82 52.7412C57.1293 52.3053 58.5988 50.2381 60.8137 50.2029C62.2762 50.1678 63.352 51.0467 63.8512 51.4475C68.0207 54.8295 67.9715 67.2678 67.9504 68.442V68.435Z" fill="#E1EAA9" stroke="black" stroke-width="1.6" stroke-linecap="round" stroke-linejoin="round"/>
<path d="M175.036 157.196C173.328 159.221 171.626 161.232 169.925 163.257L160.046 160.128C157.472 162.736 154.885 165.338 152.304 167.946C148.824 166.73 145.35 165.5 141.87 164.276C139.325 166.857 136.765 169.444 134.213 172.017C131.007 170.604 127.8 169.198 124.594 167.785C121.986 170.253 119.377 172.728 116.775 175.196C115.784 169.015 114.814 162.835 113.822 156.654C113.675 155.691 113.513 154.721 113.365 153.757C113.358 153.729 113.358 153.715 113.358 153.687C113.33 153.575 113.316 153.469 113.309 153.357C113.302 153.307 113.295 153.258 113.281 153.209C113.267 153.146 113.253 153.096 113.246 153.033C113.232 152.899 113.204 152.759 113.182 152.632C113.098 152.316 112.979 151.929 112.817 151.5C112.789 151.43 112.754 151.353 112.732 151.282C112.374 150.403 111.811 149.37 110.961 148.357C110.574 147.907 109.744 146.937 108.493 146.121C108.486 146.114 108.479 146.114 108.464 146.107C107.797 145.678 107.009 145.292 106.102 145.053C105.188 144.807 103.001 144.413 99.577 145.903C99.4082 145.974 99.2536 146.044 99.0919 146.128C98.9934 146.164 98.902 146.206 98.8106 146.262C96.7504 147.282 95.2176 148.589 93.952 149.982C93.7832 150.157 93.6356 150.333 93.502 150.488C93.4879 150.502 93.4669 150.53 93.4528 150.551C93.4387 150.579 93.4176 150.593 93.4035 150.621C93.3262 150.72 93.2489 150.804 93.1786 150.903C91.9622 152.372 90.9778 153.898 89.909 155.248H89.902C89.902 155.248 89.902 155.262 89.8949 155.262C88.8754 156.556 87.7926 157.695 86.3723 158.482C85.6832 158.869 84.9168 159.171 84.045 159.375C83.3348 159.53 81.0426 160.022 78.666 158.989C73.927 156.921 73.0622 150.586 72.9637 149.813C70.8473 127.896 69.2864 105.291 68.4004 82.0104C68.2247 77.4542 68.084 72.9261 67.9645 68.4261C67.9786 67.2519 68.0348 54.8136 63.8652 51.4315C63.366 51.0308 62.2903 50.1519 60.8278 50.187C58.6129 50.2222 57.1434 52.2894 56.834 52.7253C57.966 50.869 59.077 49.9409 59.4707 49.6245C60.659 48.6753 61.8684 48.1901 62.0723 48.0987C62.7614 47.8245 63.4012 47.6487 63.9566 47.5503C84.2488 44.1331 104.548 40.7159 124.84 37.3058C126.015 37.1159 128.398 37.2566 130.697 38.6276C131.014 38.8175 132.146 39.5276 133.362 41.0605C136.976 45.6589 137.11 52.5073 137.11 52.5073C139.057 80.5972 140.998 108.68 142.946 136.77C143.065 136.756 143.185 136.728 143.304 136.707C149.19 135.659 155.075 134.604 160.96 133.557C161.354 133.437 165.854 132.129 169.327 135.012C171.155 136.538 171.809 138.471 172.041 139.336C172.217 140.391 172.393 141.439 172.575 142.479C173.398 147.387 174.221 152.288 175.057 157.189L175.036 157.196Z" fill="white" stroke="black" stroke-width="1.6" stroke-linecap="round" stroke-linejoin="round"/>
<path d="M113.822 156.667C115.081 156.365 116.346 156.055 117.605 155.753" stroke="black" stroke-width="1.6" stroke-linecap="round" stroke-linejoin="round"/>
<path d="M121.684 154.771C124.299 154.138 126.908 153.513 129.523 152.88" stroke="black" stroke-width="1.6" stroke-linecap="round" stroke-linejoin="round"/>
<path d="M132.489 152.163C134.76 151.615 137.031 151.067 139.302 150.518" stroke="black" stroke-width="1.6" stroke-linecap="round" stroke-linejoin="round"/>
<path d="M142.277 149.8C144.577 149.245 146.876 148.689 149.168 148.134" stroke="black" stroke-width="1.6" stroke-linecap="round" stroke-linejoin="round"/>
<path d="M152.501 147.333C154.519 146.848 156.53 146.363 158.548 145.871" stroke="black" stroke-width="1.6" stroke-linecap="round" stroke-linejoin="round"/>
<path d="M161.473 145.163C163.702 144.629 165.93 144.087 168.159 143.553" stroke="black" stroke-width="1.6" stroke-linecap="round" stroke-linejoin="round"/>
<path d="M170.818 142.913C171.395 142.772 171.971 142.632 172.548 142.498" stroke="black" stroke-width="1.6" stroke-linecap="round" stroke-linejoin="round"/>
<path d="M67.9014 65.7612C69.8561 65.4307 71.8108 65.1002 73.7725 64.7698" stroke="black" stroke-width="1.6" stroke-linecap="round" stroke-linejoin="round"/>
<path d="M79.124 63.8649C81.9154 63.3938 84.7069 62.9228 87.4983 62.4517" stroke="black" stroke-width="1.6" stroke-linecap="round" stroke-linejoin="round"/>
<path d="M91.2803 61.8123C93.9873 61.3552 96.6944 60.8982 99.4014 60.4412" stroke="black" stroke-width="1.6" stroke-linecap="round" stroke-linejoin="round"/>
<path d="M104.309 59.6001C106.58 59.2134 108.844 58.8337 111.115 58.447" stroke="black" stroke-width="1.6" stroke-linecap="round" stroke-linejoin="round"/>
<path d="M114.208 57.9289C116.022 57.6195 117.836 57.3172 119.643 57.0078" stroke="black" stroke-width="1.6" stroke-linecap="round" stroke-linejoin="round"/>
<path d="M123.7 56.3261C126.07 55.9253 128.432 55.5246 130.802 55.1238" stroke="black" stroke-width="1.6" stroke-linecap="round" stroke-linejoin="round"/>
<path d="M135.043 54.4071C135.76 54.2876 136.477 54.161 137.194 54.0415" stroke="black" stroke-width="1.6" stroke-linecap="round" stroke-linejoin="round"/>
<path d="M103.423 144.861C116.712 142.147 130.001 139.433 143.29 136.719" stroke="black" stroke-width="1.6" stroke-linecap="round" stroke-linejoin="round"/>
<path d="M89.4875 84.0939L83.0539 85.2751C81.7883 85.5071 80.5859 84.6212 80.4313 83.3415L79.6578 76.8517C79.5172 75.6845 80.3047 74.6087 81.4578 74.3907L87.8844 73.1603C89.157 72.9142 90.3734 73.8071 90.5281 75.0938L91.3086 81.6329C91.4492 82.8071 90.6547 83.8829 89.4945 84.0939H89.4875Z" fill="#BBCB64" stroke="black" stroke-width="1.6" stroke-linecap="round" stroke-linejoin="round"/>
<path d="M91.175 102.177L84.7414 103.359C83.4758 103.591 82.2734 102.705 82.1188 101.425L81.3453 94.9352C81.2047 93.768 81.9922 92.6922 83.1453 92.4742L89.5719 91.2438C90.8445 90.9977 92.0609 91.8906 92.2156 93.1773L92.9961 99.7164C93.1367 100.891 92.3422 101.966 91.182 102.177H91.175Z" fill="#BBCB64" stroke="black" stroke-width="1.6" stroke-linecap="round" stroke-linejoin="round"/>
<path d="M93.1926 123.183L86.759 124.364C85.4934 124.596 84.291 123.71 84.1363 122.431L83.3629 115.941C83.2223 114.774 84.0097 113.698 85.1629 113.48L91.5894 112.249C92.8621 112.003 94.0785 112.896 94.2332 114.183L95.0137 120.722C95.1543 121.896 94.3598 122.972 93.1996 123.183H93.1926Z" fill="#BBCB64" stroke="black" stroke-width="1.6" stroke-linecap="round" stroke-linejoin="round"/>
<path d="M96.3779 73.8679C107.607 71.4069 118.836 68.939 130.065 66.478" stroke="black" stroke-width="1.6" stroke-linecap="round" stroke-linejoin="round"/>
<path d="M96.3779 79.2112C101.989 77.9807 107.607 76.7502 113.218 75.5198" stroke="black" stroke-width="1.6" stroke-linecap="round" stroke-linejoin="round"/>
<path d="M97.6934 91.9514C108.922 89.4904 120.151 87.0225 131.38 84.5615" stroke="black" stroke-width="1.6" stroke-linecap="round" stroke-linejoin="round"/>
<path d="M80.248 136.723C99.1059 133.151 117.964 129.579 136.821 126.007" stroke="#BBCB64" stroke-width="1.6" stroke-linecap="round" stroke-linejoin="round"/>
<path d="M97.6934 97.2949C103.304 96.0645 108.922 94.834 114.533 93.6035" stroke="black" stroke-width="1.6" stroke-linecap="round" stroke-linejoin="round"/>
<path d="M99.8027 113.406C105.414 112.176 111.032 110.945 116.643 109.715" stroke="black" stroke-width="1.6" stroke-linecap="round" stroke-linejoin="round"/>
<path d="M82.5674 78.4328C83.5518 79.2906 84.5431 80.1555 85.5275 81.0133C87.8478 77.575 90.1611 74.1297 92.4814 70.6914" stroke="black" stroke-width="1.6" stroke-linecap="round" stroke-linejoin="round"/>
<path d="M84.5869 96.1867C85.5713 97.0445 86.5627 97.9094 87.547 98.7672C89.8674 95.3289 92.1806 91.8836 94.501 88.4453" stroke="black" stroke-width="1.6" stroke-linecap="round" stroke-linejoin="round"/>
<path d="M86.3584 117.445C87.3428 118.303 88.3342 119.168 89.3186 120.026C91.6389 116.587 93.9522 113.142 96.2725 109.704" stroke="black" stroke-width="1.6" stroke-linecap="round" stroke-linejoin="round"/>
<path d="M86.3584 158.497C95.3584 156.922 104.358 155.34 113.358 153.765" stroke="black" stroke-width="1.6" stroke-linecap="round" stroke-linejoin="round"/>
</svg>
