<svg width="26" height="40" viewBox="0 0 26 40" fill="none" xmlns="http://www.w3.org/2000/svg">
<g clip-path="url(#clip0_256_389)">
<path d="M13 26.2779C5.83287 26.2779 0 20.3827 0 13.139C0 5.89522 5.83287 0 13 0C20.1671 0 26 5.89522 26 13.139C26 20.3827 20.1671 26.2779 13 26.2779ZM13 8.20045C10.3044 8.20045 8.11373 10.4146 8.11373 13.139C8.11373 15.8633 10.3044 18.0774 13 18.0774C15.6956 18.0774 17.8863 15.8633 17.8863 13.139C17.8863 10.4146 15.6956 8.20045 13 8.20045Z" fill="#F5C857"/>
<path d="M13.0002 40C6.2117 40 0.61323 34.7062 0.045269 27.9909C-0.00882258 27.3896 0.459971 26.8611 1.05498 26.8611H7.18535C7.69021 26.8611 8.09589 27.2347 8.18605 27.7358C8.59173 30.041 10.5931 31.8087 13.0002 31.8087C15.4073 31.8087 17.3996 30.0502 17.8143 27.7358C17.9045 27.2347 18.3102 26.8611 18.815 26.8611H24.9454C25.5494 26.8611 26.0092 27.3896 25.9551 27.9909C25.3872 34.7062 19.7977 40 13.0002 40Z" fill="#F5C857"/>
</g>
<defs>
<clipPath id="clip0_256_389">
<rect width="26" height="40" fill="white"/>
</clipPath>
</defs>
</svg>
